<svg width="36" height="36" viewBox="0 0 36 36" fill="none" xmlns="http://www.w3.org/2000/svg">
<path d="M26.2743 31.4215C26.035 31.4224 25.799 31.366 25.586 31.2569L17.9551 27.2618L10.3242 31.2569C10.0764 31.3872 9.79702 31.4453 9.51782 31.4247C9.23862 31.4042 8.97079 31.3057 8.74478 31.1404C8.51877 30.9752 8.34365 30.7499 8.23932 30.4901C8.135 30.2303 8.10565 29.9465 8.15461 29.6708L9.65087 21.2469L3.48628 15.2618C3.29395 15.0699 3.15751 14.8292 3.09161 14.5656C3.02571 14.302 3.03283 14.0254 3.11222 13.7656C3.19894 13.4997 3.35847 13.2634 3.57269 13.0835C3.78692 12.9037 4.04726 12.7875 4.32419 12.7481L12.8529 11.5062L16.6085 3.83041C16.731 3.57744 16.9223 3.36409 17.1605 3.21481C17.3986 3.06553 17.674 2.98636 17.9551 2.98636C18.2362 2.98636 18.5116 3.06553 18.7498 3.21481C18.9879 3.36409 19.1792 3.57744 19.3018 3.83041L23.1023 11.4913L31.6309 12.7332C31.9079 12.7725 32.1682 12.8887 32.3824 13.0686C32.5967 13.2484 32.7562 13.4847 32.8429 13.7506C32.9223 14.0105 32.9294 14.2871 32.8635 14.5507C32.7976 14.8143 32.6612 15.0549 32.4688 15.2469L26.3042 21.2319L27.8005 29.6559C27.8539 29.9364 27.826 30.2263 27.7199 30.4915C27.6139 30.7566 27.4341 30.9858 27.202 31.1521C26.9311 31.342 26.6048 31.4367 26.2743 31.4215ZM17.9551 24.0898C18.195 24.0837 18.4322 24.1405 18.6434 24.2544L24.2843 27.2469L23.207 20.9476C23.1652 20.7071 23.1829 20.46 23.2585 20.2279C23.3341 19.9958 23.4654 19.7857 23.6409 19.616L28.1297 15.2319L21.8454 14.3042C21.6149 14.2578 21.3987 14.1578 21.2141 14.0122C21.0295 13.8666 20.8819 13.6796 20.7831 13.4663L17.9551 7.85535L15.1272 13.4663C15.0189 13.6813 14.8604 13.8671 14.665 14.0077C14.4697 14.1484 14.2432 14.2398 14.005 14.2743L7.7207 15.202L12.2095 19.586C12.385 19.7558 12.5162 19.9658 12.5919 20.198C12.6675 20.4301 12.6852 20.6772 12.6434 20.9177L11.5661 27.1421L17.207 24.1496C17.446 24.0608 17.705 24.04 17.9551 24.0898Z" fill="#231F20"/>
</svg>
